<?xml version="1.0" encoding="utf-8"?>
<!-- Generated by IcoMoon.io -->
<!DOCTYPE svg PUBLIC "-//W3C//DTD SVG 1.1//EN" "http://www.w3.org/Graphics/SVG/1.1/DTD/svg11.dtd">
<svg version="1.1" xmlns="http://www.w3.org/2000/svg" xmlns:xlink="http://www.w3.org/1999/xlink" width="1024" height="1024" viewBox="0 0 1024 1024"><g id="icomoon-ignore">
</g>
<path d="M496 944c-229.76 0-416-186.24-416-416s186.24-416 416-416 416 186.24 416 416-186.24 416-416 416zM702.016 510.016c0-17.664-14.336-32-32-32h-128v-128c0-17.664-14.304-32-32-32h-32c-17.696 0-32 14.336-32 32v128h-128c-17.696 0-32 14.336-32 32v32c0 17.696 14.304 32 32 32h128v128c0 17.696 14.304 32 32 32h32c17.696 0 32-14.304 32-32v-128h128c17.664 0 32-14.304 32-32v-32z"></path>
</svg>
